<svg width="900" height="420" viewBox="0 0 900 420" fill="none" xmlns="http://www.w3.org/2000/svg">
  <defs>
    <linearGradient id="carPaint" x1="220" y1="80" x2="700" y2="360" gradientUnits="userSpaceOnUse">
      <stop offset="0" stop-color="#FF9A3C" />
      <stop offset="1" stop-color="#F46A24" />
    </linearGradient>
    <linearGradient id="glass" x1="330" y1="120" x2="530" y2="260" gradientUnits="userSpaceOnUse">
      <stop offset="0" stop-color="#F7F7F7" stop-opacity="0.8" />
      <stop offset="1" stop-color="#D9D9D9" stop-opacity="0.6" />
    </linearGradient>
  </defs>
  <rect x="210" y="70" width="480" height="280" rx="120" fill="url(#carPaint)" />
  <rect x="270" y="110" width="360" height="200" rx="80" fill="#FFB36A" />
  <rect x="320" y="130" width="140" height="120" rx="40" fill="url(#glass)" />
  <rect x="460" y="130" width="140" height="120" rx="40" fill="url(#glass)" />
  <rect x="260" y="150" width="40" height="120" rx="20" fill="#1C1C1C" />
  <rect x="600" y="150" width="40" height="120" rx="20" fill="#1C1C1C" />
  <rect x="240" y="110" width="420" height="30" rx="15" fill="#E0552B" />
  <rect x="240" y="280" width="420" height="30" rx="15" fill="#E0552B" />
  <path d="M230 80L260 110" stroke="#1C1C1C" stroke-width="10" stroke-linecap="round" />
  <path d="M670 80L640 110" stroke="#1C1C1C" stroke-width="10" stroke-linecap="round" />
  <path d="M230 340L260 310" stroke="#1C1C1C" stroke-width="10" stroke-linecap="round" />
  <path d="M670 340L640 310" stroke="#1C1C1C" stroke-width="10" stroke-linecap="round" />
</svg>
